<?xml version="1.0" encoding="UTF-8"?>
<!DOCTYPE svg PUBLIC "-//W3C//DTD SVG 1.1//EN" "http://www.w3.org/Graphics/SVG/1.1/DTD/svg11.dtd">
<svg xmlns="http://www.w3.org/2000/svg" version="1.1" width="2172px" height="1055px" style="shape-rendering:geometricPrecision; text-rendering:geometricPrecision; image-rendering:optimizeQuality; fill-rule:evenodd; clip-rule:evenodd" xmlns:xlink="http://www.w3.org/1999/xlink">
<g><path style="opacity:0.975" fill="#fefefe" d="M 1377.5,396.5 C 1387.88,404.359 1397.88,412.692 1407.5,421.5C 1404.27,437.515 1401.94,453.515 1400.5,469.5C 1427.5,456.833 1454.5,444.167 1481.5,431.5C 1484.57,420.672 1487.07,409.672 1489,398.5C 1489.41,398.043 1489.91,397.709 1490.5,397.5C 1499.52,405.023 1508.69,412.357 1518,419.5C 1516.63,435.232 1514.47,450.899 1511.5,466.5C 1511.83,467.5 1512.17,468.5 1512.5,469.5C 1526.32,463.09 1539.99,456.423 1553.5,449.5C 1557.19,432.552 1560.69,415.552 1564,398.5C 1564.41,398.043 1564.91,397.709 1565.5,397.5C 1574.52,405.023 1583.69,412.357 1593,419.5C 1593,423.567 1593.17,427.567 1593.5,431.5C 1598.29,429.022 1603.12,426.689 1608,424.5C 1601.91,435.979 1595.25,447.312 1588,458.5C 1575.23,536.148 1562.56,613.815 1550,691.5C 1540.21,664.646 1530.71,637.646 1521.5,610.5C 1530.43,569.18 1538.43,527.847 1545.5,486.5C 1532.61,490.305 1519.61,493.638 1506.5,496.5C 1496,561.49 1485.5,626.49 1475,691.5C 1465.21,664.646 1455.71,637.646 1446.5,610.5C 1453.5,576.5 1460.5,542.5 1467.5,508.5C 1467,508.167 1466.5,507.833 1466,507.5C 1440.85,514.246 1415.68,520.913 1390.5,527.5C 1381.23,582.14 1372.06,636.807 1363,691.5C 1353.23,664.523 1344.06,637.357 1335.5,610C 1342.23,575.834 1348.9,541.668 1355.5,507.5C 1346.33,509.541 1337.33,512.041 1328.5,515C 1331.29,517.21 1332.12,520.044 1331,523.5C 1323.03,560.022 1315.86,596.522 1309.5,633C 1313.19,633.559 1316.85,634.226 1320.5,635C 1316.25,636.211 1311.91,637.378 1307.5,638.5C 1306.56,642.374 1305.56,646.208 1304.5,650C 1289.13,655.735 1273.79,661.568 1258.5,667.5C 1258.17,666.833 1257.83,666.167 1257.5,665.5C 1259.49,658.892 1261.15,652.226 1262.5,645.5C 1242.88,648.826 1223.21,651.826 1203.5,654.5C 1202.35,628.159 1201.52,601.826 1201,575.5C 1229.41,568.751 1257.91,562.251 1286.5,556C 1289.73,545.924 1292.73,535.758 1295.5,525.5C 1295.11,524.28 1294.28,523.613 1293,523.5C 1287.9,525.317 1282.74,526.484 1277.5,527C 1281.33,525.254 1284.99,523.254 1288.5,521C 1255.83,504.333 1223.17,487.667 1190.5,471C 1229.38,475.84 1268.21,481.34 1307,487.5C 1312.7,492.209 1317.36,497.875 1321,504.5C 1322.05,505.517 1323.22,505.684 1324.5,505C 1335.83,499.667 1347.17,494.333 1358.5,489C 1365.53,458.362 1371.86,427.528 1377.5,396.5 Z M 1476.5,458.5 C 1475.3,468.851 1473.3,479.017 1470.5,489C 1443.92,501.458 1417.25,513.625 1390.5,525.5C 1391.94,515.848 1393.28,506.181 1394.5,496.5C 1417.52,490.829 1440.52,484.996 1463.5,479C 1467.73,472.018 1472.07,465.184 1476.5,458.5 Z M 1283.5,564.5 C 1284.1,564.735 1284.43,565.235 1284.5,566C 1278.85,585.766 1273.52,605.6 1268.5,625.5C 1256.54,623.284 1244.54,621.284 1232.5,619.5C 1232.17,613.132 1232.5,606.798 1233.5,600.5C 1250.49,588.831 1267.15,576.831 1283.5,564.5 Z"/></g>
<g><path style="opacity:0.975" fill="#fefefe" d="M 905.5,397.5 C 915.105,404.594 924.605,411.927 934,419.5C 932.657,435.402 930.49,451.235 927.5,467C 927.833,467.833 928.167,468.667 928.5,469.5C 960.581,454.112 992.581,439.445 1024.5,425.5C 1013.76,443.735 1002.43,461.568 990.5,479C 967.894,485.151 945.227,490.985 922.5,496.5C 912.218,561.524 901.718,626.524 891,691.5C 881.215,664.646 871.715,637.646 862.5,610.5C 869.5,576.5 876.5,542.5 883.5,508.5C 866.403,511.523 849.403,515.69 832.5,521C 834.758,524.184 836.758,527.517 838.5,531C 826.037,592.319 813.204,653.486 800,714.5C 791.456,706.954 782.623,699.788 773.5,693C 772.106,692.044 771.439,690.711 771.5,689C 776.782,659.476 782.115,629.976 787.5,600.5C 786.998,599.479 786.332,599.312 785.5,600C 767.009,613.413 748.342,626.579 729.5,639.5C 720.68,626.539 712.347,613.206 704.5,599.5C 711.772,560.868 718.939,522.201 726,483.5C 744.333,468.167 762.667,452.833 781,437.5C 781.328,440.207 780.995,442.874 780,445.5C 766.673,495.142 753.506,544.809 740.5,594.5C 757.16,590.502 773.827,586.502 790.5,582.5C 796.116,550.138 801.949,517.805 808,485.5C 814.934,495.714 822.1,505.714 829.5,515.5C 848.5,506.667 867.5,497.833 886.5,489C 893.154,458.563 899.487,428.063 905.5,397.5 Z"/></g>
<g><path style="opacity:0.978" fill="#fefefe" d="M 1110.5,397.5 C 1119.94,404.427 1129.27,411.594 1138.5,419C 1139.1,420.062 1139.43,421.228 1139.5,422.5C 1132.94,456.188 1126.27,489.855 1119.5,523.5C 1119.83,524.167 1120.17,524.833 1120.5,525.5C 1141.75,510.957 1162.92,496.29 1184,481.5C 1192.22,494.771 1200.05,508.271 1207.5,522C 1199.24,556.864 1190.91,591.698 1182.5,626.5C 1164.15,642.022 1145.65,657.355 1127,672.5C 1107.38,642.085 1087.88,611.585 1068.5,581C 1082.58,519.847 1096.58,458.681 1110.5,397.5 Z M 1169.5,526.5 C 1170.5,526.47 1171.16,526.97 1171.5,528C 1161.2,561.905 1150.7,595.738 1140,629.5C 1129,617.5 1118,605.5 1107,593.5C 1109.21,576.42 1112.21,559.42 1116,542.5C 1116.77,541.151 1117.94,540.318 1119.5,540C 1136.37,535.785 1153.04,531.285 1169.5,526.5 Z"/></g>
<g><path style="opacity:0.979" fill="#fefefe" d="M 460.5,419.5 C 546.445,429.826 632.445,439.826 718.5,449.5C 718.5,459.5 718.5,469.5 718.5,479.5C 665.757,498.034 613.091,516.867 560.5,536C 607.984,545.527 655.65,554.527 703.5,563C 704.167,563.333 704.833,563.667 705.5,564C 701.367,575.261 696.7,586.261 691.5,597C 582.016,627.53 472.682,657.364 363.5,686.5C 390.042,674.73 416.708,663.23 443.5,652C 434.173,651.245 424.84,650.578 415.5,650C 414.572,649.612 413.905,648.945 413.5,648C 429.408,571.871 445.074,495.705 460.5,419.5 Z M 498.5,465.5 C 544.153,469.696 589.82,473.862 635.5,478C 584.207,498.931 532.873,519.764 481.5,540.5C 481.167,539.833 480.833,539.167 480.5,538.5C 486.353,514.09 492.353,489.757 498.5,465.5 Z M 455.5,646.5 C 462.729,613.25 470.729,580.25 479.5,547.5C 521.466,559.433 563.466,571.266 605.5,583C 555.594,604.455 505.594,625.621 455.5,646.5 Z"/></g>
<g><path style="opacity:0.976" fill="#fefefe" d="M 1052.5,483.5 C 1057.17,483.5 1061.83,483.5 1066.5,483.5C 1067.47,510.158 1068.14,536.825 1068.5,563.5C 1040.08,569.45 1011.75,575.783 983.5,582.5C 979.892,592.254 976.892,602.254 974.5,612.5C 974.833,613.167 975.167,613.833 975.5,614.5C 1010.32,632.078 1044.99,649.911 1079.5,668C 1039.82,662.555 1000.15,656.555 960.5,650C 952.833,639.667 945.167,629.333 937.5,619C 946.944,575.617 955.944,532.117 964.5,488.5C 993.996,487.026 1023.33,485.36 1052.5,483.5 Z M 985.5,573.5 C 990.531,553.043 996.031,532.71 1002,512.5C 1013.48,514.776 1024.98,517.109 1036.5,519.5C 1037.66,525.472 1037.83,531.472 1037,537.5C 1019.89,549.633 1002.73,561.633 985.5,573.5 Z"/></g>
<g><path style="opacity:0.976" fill="#fefefe" d="M 1689.5,483.5 C 1694.17,483.5 1698.83,483.5 1703.5,483.5C 1704.39,510.16 1705.06,536.827 1705.5,563.5C 1677.08,569.45 1648.75,575.783 1620.5,582.5C 1616.89,592.254 1613.89,602.254 1611.5,612.5C 1611.83,613.167 1612.17,613.833 1612.5,614.5C 1647.32,632.078 1681.99,649.911 1716.5,668C 1676.82,662.555 1637.15,656.555 1597.5,650C 1589.83,639.667 1582.17,629.333 1574.5,619C 1583.94,575.617 1592.94,532.117 1601.5,488.5C 1631,487.026 1660.33,485.36 1689.5,483.5 Z M 1622.5,573.5 C 1627.28,552.981 1632.78,532.647 1639,512.5C 1650.48,514.776 1661.98,517.109 1673.5,519.5C 1674.66,525.472 1674.83,531.472 1674,537.5C 1656.89,549.633 1639.73,561.633 1622.5,573.5 Z"/></g>
</svg>
